<svg id="Layer_1" data-name="Layer 1" xmlns="http://www.w3.org/2000/svg" viewBox="0 0 34.67 34.67"><defs><style>.cls-1{fill:#fff;}.cls-2{opacity:0.9;}.cls-3{fill:#d92228;}</style></defs><title>icons</title><circle class="cls-1" cx="17.33" cy="17.33" r="17.33"/><g class="cls-2"><path class="cls-3" d="M17.3,7.27a11,11,0,0,1,3.83.61,9.19,9.19,0,0,1,5.5,5.07,11,11,0,0,1,.89,4.37q0,0.59-.08,1.67a8,8,0,0,1-.49,2.14A5,5,0,0,1,25.73,23a3.21,3.21,0,0,1-2.27.82,3.06,3.06,0,0,1-1.2-.18,2,2,0,0,1-.76-0.51,2.13,2.13,0,0,1-.43-0.71,4.06,4.06,0,0,1-.2-0.76,6.85,6.85,0,0,1-2,1.4,6.2,6.2,0,0,1-2.61.58,4.15,4.15,0,0,1-3.15-1.05A3.76,3.76,0,0,1,12,19.88,3.57,3.57,0,0,1,12.45,18a3.72,3.72,0,0,1,1.18-1.24,5.11,5.11,0,0,1,1.64-.7,8.46,8.46,0,0,1,1.82-.23A7.29,7.29,0,0,1,19,16a8.07,8.07,0,0,1,1.19.38A6.37,6.37,0,0,0,20,15a2.46,2.46,0,0,0-.5-1,2.3,2.3,0,0,0-1-.66,4.12,4.12,0,0,0-1.52-.22,5.89,5.89,0,0,0-2,.36,5.4,5.4,0,0,0-1.56.89l-0.7-1.9a8.06,8.06,0,0,1,4.6-1.42,5.66,5.66,0,0,1,2.71.49,3.69,3.69,0,0,1,1.49,1.35,4.58,4.58,0,0,1,.62,1.8,17.49,17.49,0,0,1,.14,1.89l0,2.58q0,0.62.06,1.15a4.28,4.28,0,0,0,.19,1,1.46,1.46,0,0,0,.41.67,1.09,1.09,0,0,0,.76.23A1.43,1.43,0,0,0,25,21.62a4,4,0,0,0,.66-1.33,8.51,8.51,0,0,0,.31-1.62A13.39,13.39,0,0,0,26,17.23a9.14,9.14,0,0,0-.69-3.4,8.27,8.27,0,0,0-1.82-2.73,8.08,8.08,0,0,0-2.77-1.78,9.19,9.19,0,0,0-3.54-.6,9,9,0,0,0-3.44.7,8,8,0,0,0-2.67,1.83A8.11,8.11,0,0,0,9.36,14a9.11,9.11,0,0,0-.57,3.44,9.49,9.49,0,0,0,.65,3.36,8.21,8.21,0,0,0,1.72,2.71,8,8,0,0,0,2.65,1.81,8.33,8.33,0,0,0,3.45.63,7.7,7.7,0,0,0,2.2-.32,15,15,0,0,0,1.92-.77l0.48,1.39a11.11,11.11,0,0,1-2.3.84,10.79,10.79,0,0,1-2.39.31,9.75,9.75,0,0,1-3.8-.68,9.52,9.52,0,0,1-3.14-2,9.63,9.63,0,0,1-2.15-3.16,10.79,10.79,0,0,1-.83-4.11A10.14,10.14,0,0,1,8,13.19,9.43,9.43,0,0,1,10.24,10a9.81,9.81,0,0,1,3.22-2A11.16,11.16,0,0,1,17.3,7.27ZM18.79,21a2.62,2.62,0,0,0,1.13-.93,2.29,2.29,0,0,0,.29-1.21V18.08Q19.82,18,19,17.75a7.11,7.11,0,0,0-1.83-.19,4.36,4.36,0,0,0-2.13.51,1.63,1.63,0,0,0-.82,1.56A2.2,2.2,0,0,0,14.77,21a2,2,0,0,0,1.69.62,4.43,4.43,0,0,0,1.21-.19A7.23,7.23,0,0,0,18.79,21Z"/></g></svg>