<svg id="Layer_1" data-name="Layer 1" xmlns="http://www.w3.org/2000/svg" viewBox="0 0 34.67 34.67"><defs><style>.cls-1{fill:#fff;}.cls-2{fill:#cf2f2f;}</style></defs><title>icons</title><path class="cls-1" d="M17.33,0A17.33,17.33,0,1,0,34.67,17.33,17.35,17.35,0,0,0,17.33,0Z"/><path class="cls-2" d="M31,17.92v-.32H25.61V16l1-.32-1.75-.64v-.32l.8-.64L24,13.47l-.32-1.59v-.32a.32.32,0,1,0-.64,0v.32H11.61v-.32a.32.32,0,1,0-.64,0v.32l-.32,1.59-1.59.64.8.64v.32l-1.75.64,1,.32v1.59H3.65v.32L3,21.42H9.38v-.8a.48.48,0,1,1,1,0v.8h2.55v-1a.64.64,0,0,1,1.27,0v1h2.39V20.31a.8.8,0,0,1,1.59,0v1.11h2.39v-1a.64.64,0,0,1,1.27,0v1h2.55v-.8a.48.48,0,1,1,1,0v.8h6.36Zm-15.75-.32h-.64V16.33h.64Zm2.55,0h-1V16.33h1Zm2.23,0H19.4V16.33H20Z"/></svg>