<svg id="Layer_1" data-name="Layer 1" xmlns="http://www.w3.org/2000/svg" viewBox="0 0 34.67 34.67"><defs><style>.cls-1{fill:#fff;}.cls-2{fill:#cf2f2f;}</style></defs><title>icons</title><rect class="cls-1" x="17.09" y="27.51" width="0.54" height="1.41"/><rect class="cls-1" x="17.09" y="29.4" width="0.54" height="1.41"/><path class="cls-1" d="M17.09,32.6h.54V31.25h-.54Z"/><path class="cls-1" d="M34.67,17.33A17.33,17.33,0,1,0,14.58,34.43a2.93,2.93,0,0,1,1.59-1.66V21.87A3.13,3.13,0,0,1,15,20.78a2.52,2.52,0,0,1-.33-1.25A2.62,2.62,0,0,1,16.6,17V14.11a1.06,1.06,0,0,1-.49-.49,1.29,1.29,0,0,1-.16-.65,1.41,1.41,0,0,1,.92-1.3V9.93h-.16a.22.22,0,0,1,0-.43h.38V2.29a.23.23,0,0,1,.22-.22h.11c.11.05.16.11.16.22V9.45H18a.22.22,0,0,1,0,.43h-.16v1.74a1.41,1.41,0,0,1,.92,1.3,1.35,1.35,0,0,1-.65,1.19V17A2.62,2.62,0,0,1,20,19.53a2.58,2.58,0,0,1-1.36,2.28v11a3,3,0,0,1,1.48,1.61A17.35,17.35,0,0,0,34.67,17.33Z"/><path class="cls-1" d="M17.14,22.14v1.14h.54V22.08a.69.69,0,0,1-.33.05Z"/><rect class="cls-1" x="17.09" y="25.66" width="0.54" height="1.41"/><rect class="cls-1" x="17.09" y="23.76" width="0.54" height="1.41"/><path class="cls-2" d="M18.61,32.82v-11A2.58,2.58,0,0,0,20,19.53,2.62,2.62,0,0,0,18.06,17V14.11a1.35,1.35,0,0,0,.65-1.19,1.41,1.41,0,0,0-.92-1.3V9.88H18a.22.22,0,0,0,0-.43h-.38V2.29c0-.11-.05-.16-.16-.22h-.11a.23.23,0,0,0-.22.22V9.5h-.38a.22.22,0,0,0,0,.43h.16v1.74a1.41,1.41,0,0,0-.92,1.3,1.29,1.29,0,0,0,.16.65,1.06,1.06,0,0,0,.49.49V17a2.62,2.62,0,0,0-1.9,2.49A2.52,2.52,0,0,0,15,20.78a3.13,3.13,0,0,0,1.14,1.08v10.9a2.93,2.93,0,0,0-1.59,1.66,17.3,17.3,0,0,0,2.76.24,17.3,17.3,0,0,0,2.75-.24A3,3,0,0,0,18.61,32.82Zm-1-.22h-.54V31.25h.54Zm0-1.79h-.54V29.4h.54Zm0-1.9h-.54V27.51h.54Zm0-1.84h-.54V25.66h.54Zm0-1.9h-.54V23.76h.54Zm.05-1.9h-.54V22.14h.22a.69.69,0,0,0,.33-.05Z"/></svg>